<?xml version="1.0" encoding="UTF-8"?>
<svg width="51px" height="36px" viewBox="0 0 51 36" version="1.1" xmlns="http://www.w3.org/2000/svg" xmlns:xlink="http://www.w3.org/1999/xlink">
    <!-- Generator: Sketch 59.1 (86144) - https://sketch.com -->
    <title>Group</title>
    <desc>Created with Sketch.</desc>
    <g id="Symbols" stroke="none" stroke-width="1" fill="none" fill-rule="evenodd">
        <g id="Logo/Old-Logo" transform="translate(-2.000000, -2.000000)">
            <g id="Group" transform="translate(2.000000, 2.000000)">
                <path d="M5.00869565,30.9130435 C5.55652174,30.7173913 6.14347826,30.8347826 6.65217391,31.226087 L6.65217391,31.226087 L6.69130435,31.2652174 C6.76956522,31.3826087 6.76956522,31.5 6.69130435,31.5782609 L6.69130435,31.5782609 L6.53478261,31.7347826 L6.49565217,31.7347826 C6.49565217,31.7347826 6.49565217,31.773913 6.45652174,31.773913 C6.37826087,31.8130435 6.33913043,31.8130435 6.3,31.773913 L6.3,31.773913 L6.26086957,31.773913 L6.26086957,31.7347826 L6.22173913,31.6956522 C5.86956522,31.4608696 5.43913043,31.3826087 5.00869565,31.4608696 C3.95217391,31.6956522 3.20869565,32.5956522 3.13043478,33.6913043 C3.13043478,34.0826087 3.24782609,34.4347826 3.52173913,34.7478261 C3.79565217,35.0608696 4.14782609,35.2173913 4.53913043,35.2173913 C4.65652174,35.2173913 4.77391304,35.2173913 4.89130435,35.1782609 C5.36086957,35.0608696 5.83043478,34.7869565 6.14347826,34.4347826 C6.26086957,34.3565217 6.37826087,34.3173913 6.45652174,34.3956522 L6.45652174,34.3956522 L6.57391304,34.473913 C6.65217391,34.5521739 6.65217391,34.7086957 6.57391304,34.7869565 C6.1826087,35.2956522 5.63478261,35.6086957 4.96956522,35.726087 C4.85217391,35.7652174 4.69565217,35.7652174 4.53913043,35.7652174 C3.63913043,35.7652174 2.8173913,35.1391304 2.62173913,34.2391304 C2.5826087,34.0434783 2.5826087,33.8478261 2.5826087,33.6913043 C2.66086957,32.2826087 3.67826087,31.1478261 5.00869565,30.9130435 Z M11.7,29.8173913 C12.0521739,29.7391304 12.3652174,29.7782609 12.6782609,29.9347826 C12.9913043,30.0913043 13.1869565,30.3652174 13.2652174,30.7173913 C13.3043478,30.7956522 13.3043478,30.9521739 13.3043478,31.0695652 L13.3043478,31.0695652 L13.2873188,31.2341259 C13.1986413,31.8307065 12.825,32.3478261 12.2869565,32.6347826 L12.2869565,32.6347826 L13.1086957,33.926087 C13.1478261,33.926087 13.1869565,33.9652174 13.1869565,34.0826087 C13.1869565,34.1217391 13.1869565,34.1608696 13.1478261,34.2 C13.1478261,34.2391304 13.1086957,34.2782609 13.0304348,34.2782609 L13.0304348,34.2782609 L12.8347826,34.2391304 C12.7173913,34.2391304 12.6391304,34.2391304 12.5608696,34.1217391 L12.5608696,34.1217391 L11.7,32.7521739 L11.5826087,32.7913043 L10.526087,32.9869565 L10.526087,34.5130435 C10.526087,34.6695652 10.4086957,34.7869565 10.2913043,34.7869565 L10.2913043,34.7869565 L10.1347826,34.7869565 C10.0565217,34.7869565 9.9,34.7086957 9.9,34.5913043 L9.9,34.5913043 L9.9,30.1695652 L9.97826087,30.1695652 C10.0173913,30.1304348 10.0956522,30.0913043 10.1347826,30.0913043 L10.1347826,30.0913043 Z M19.4086957,28.4478261 C19.4869565,28.4086957 19.526087,28.4086957 19.5652174,28.4478261 L19.5652174,28.4478261 L19.6043478,28.4478261 L19.6043478,28.4869565 L19.6826087,28.4869565 L19.6826087,28.7608696 C19.6826087,28.8782609 19.5652174,28.9956522 19.4478261,28.9956522 L19.4478261,28.9956522 L17.3347826,29.3478261 L17.3347826,30.7956522 L19.1347826,30.4826087 C19.2130435,30.4434783 19.2521739,30.4434783 19.2913043,30.4826087 L19.2913043,30.4826087 L19.3695652,30.4826087 L19.3695652,30.5608696 C19.4086957,30.5608696 19.4086957,30.6 19.4086957,30.6391304 L19.4086957,30.6391304 L19.4086957,30.7956522 C19.4086957,30.9130435 19.3304348,31.0304348 19.2130435,31.0304348 L19.2130435,31.0304348 L17.3347826,31.3826087 L17.3347826,32.9478261 L19.4478261,32.5956522 C19.526087,32.5565217 19.5652174,32.5565217 19.6043478,32.5956522 L19.6043478,32.5956522 L19.6826087,32.5956522 L19.6826087,32.673913 C19.7217391,32.673913 19.7217391,32.7130435 19.7217391,32.7521739 L19.7217391,32.7521739 L19.7217391,32.9086957 C19.7217391,33.0652174 19.6043478,33.1826087 19.4869565,33.1826087 L19.4869565,33.1826087 L16.9043478,33.6130435 C16.8652174,33.6130435 16.7086957,33.573913 16.7086957,33.4565217 L16.7086957,33.4565217 L16.7086957,29.1521739 C16.7086957,28.9956522 16.7869565,28.8782609 16.9043478,28.8782609 L16.9043478,28.8782609 Z M24.4565217,27.4304348 C24.573913,27.3913043 24.6521739,27.4695652 24.7304348,27.5478261 L24.7304348,27.5478261 L26.5695652,31.773913 C26.5695652,31.8521739 26.5304348,31.9695652 26.4130435,31.9695652 L26.4130435,31.9695652 L26.2956522,32.0086957 C26.1782609,32.0086957 26.1,31.9304348 26.0608696,31.8913043 L26.0608696,31.8913043 L26.0608696,31.8521739 L25.5913043,30.873913 L23.3608696,31.2652174 L22.8913043,32.4 C22.8913043,32.5173913 22.773913,32.5956522 22.6956522,32.5956522 L22.6956522,32.5956522 L22.4608696,32.6347826 L22.4217391,32.6347826 L22.3434783,32.5565217 C22.3434783,32.5173913 22.3043478,32.4391304 22.3434783,32.3217391 L22.3434783,32.3217391 L24.3,27.5478261 C24.3391304,27.5086957 24.4173913,27.4304348 24.4565217,27.4304348 Z M11.973913,30.2869565 C11.8956522,30.2869565 11.8173913,30.2869565 11.7782609,30.326087 L11.7782609,30.326087 L11.7391304,30.326087 L10.526087,30.5608696 L10.526087,32.4391304 L11.7,32.2434783 C12.2869565,32.126087 12.6782609,31.6565217 12.7173913,31.0695652 C12.7173913,30.873913 12.6391304,30.6782609 12.4826087,30.4826087 C12.3652174,30.3652174 12.1695652,30.2869565 11.973913,30.2869565 Z M31.6565217,26.2956522 C31.8130435,26.2173913 31.8913043,26.2956522 31.9695652,26.373913 L31.9695652,26.373913 L32.0086957,26.4130435 L32.0086957,26.6086957 C32.0086957,26.726087 31.9304348,26.8434783 31.8130435,26.8434783 L31.8130435,26.8434783 L30.7173913,27.0391304 L30.7173913,30.9913043 C30.7173913,31.1478261 30.5608696,31.2652174 30.4434783,31.2652174 L30.4434783,31.2652174 L30.1304348,31.2652174 L30.1304348,31.1869565 C30.1304348,31.1478261 30.0913043,31.1086957 30.0913043,31.0695652 L30.0913043,31.0695652 L30.0913043,27.1173913 L29.0347826,27.3130435 L29.0347826,27.3130435 L28.9556046,27.3078465 C28.7908288,27.2843071 28.7608696,27.1858696 28.7608696,27.1173913 L28.7608696,27.1173913 L28.7608696,27.0391304 C28.7608696,26.8826087 28.8391304,26.7652174 28.9565217,26.7652174 L28.9565217,26.7652174 Z M24.4956522,28.4869565 L23.6347826,30.6391304 L25.3565217,30.326087 L24.4956522,28.4869565 Z M35.3384511,25.6139266 L35.373913,25.6304348 C35.4130435,25.6695652 35.4521739,25.7478261 35.4521739,25.8652174 L35.4521739,25.8652174 L35.4521739,30.1695652 C35.4521739,30.2869565 35.373913,30.4043478 35.2565217,30.4043478 L35.2565217,30.4043478 L35.1391304,30.4434783 L34.9043478,30.4434783 L34.9043478,30.3652174 C34.9043478,30.326087 34.8652174,30.2869565 34.8652174,30.2478261 L34.8652174,30.2478261 L34.8652174,25.9434783 C34.8652174,25.7869565 34.9826087,25.6695652 35.1,25.6695652 L35.1,25.6695652 L35.2173913,25.6304348 C35.2565217,25.6304348 35.3347826,25.5913043 35.373913,25.6304348 Z M42.5347826,24.3782609 C42.6521739,24.3782609 42.6521739,24.3782609 42.6521739,24.4565217 L42.6521739,24.4565217 L42.6913043,24.4956522 L42.6913043,24.6913043 L40.7347826,29.3869565 C40.7347826,29.4652174 40.6565217,29.5826087 40.5391304,29.5826087 L40.5391304,29.5826087 L40.5,29.5826087 C40.4608696,29.5826087 40.3434783,29.5043478 40.3043478,29.426087 L40.3043478,29.426087 L38.426087,25.3565217 L38.426087,25.2 L38.4652174,25.1608696 C38.5043478,25.1217391 38.5434783,25.0826087 38.6217391,25.0826087 L38.6217391,25.0826087 L38.7391304,25.0434783 C38.7782609,25.0043478 38.8565217,25.0043478 38.8956522,25.0434783 L38.8956522,25.0434783 L38.973913,25.1217391 L39.0130435,25.1608696 L40.5782609,28.4869565 L42.1826087,24.5347826 C42.2217391,24.4956522 42.3,24.4173913 42.3782609,24.4173913 L42.3782609,24.4173913 Z M48.5254076,23.1487092 L48.5608696,23.1652174 C48.6391304,23.2043478 48.6782609,23.2826087 48.6782609,23.3608696 L48.6782609,23.3608696 L48.6782609,23.5173913 C48.6782609,23.673913 48.6,23.7913043 48.4826087,23.7913043 L48.4826087,23.7913043 L46.3304348,24.1043478 L46.3304348,25.5521739 L48.1304348,25.2391304 L48.1304348,25.2391304 L48.2869565,25.2391304 C48.3652174,25.2782609 48.4043478,25.3565217 48.4043478,25.4347826 L48.4043478,25.4347826 L48.4043478,25.5913043 C48.4043478,25.7086957 48.326087,25.826087 48.2086957,25.826087 L48.2086957,25.826087 L46.3304348,26.1782609 L46.3304348,27.7826087 L48.4826087,27.4304348 L48.4826087,27.4304348 L48.6391304,27.4304348 C48.6782609,27.4695652 48.7173913,27.5478261 48.6782609,27.626087 L48.6782609,27.626087 L48.6782609,27.7043478 C48.6782609,27.8217391 48.6,27.9391304 48.4826087,27.9391304 L48.4826087,27.9391304 L45.9,28.3695652 C45.8608696,28.3695652 45.7043478,28.2913043 45.7043478,28.173913 L45.7043478,28.173913 L45.7043478,23.8695652 C45.7043478,23.7130435 45.7826087,23.5956522 45.9,23.5956522 L45.9,23.5956522 L48.4043478,23.1652174 C48.4434783,23.1652174 48.5217391,23.126087 48.5608696,23.1652174 Z" id="Combined-Shape" fill="#1D212E"/>
                <path d="M2.7,3.99130435 C2.97391304,3.99130435 3.20869565,4.18695652 3.20869565,4.46086957 L3.20869565,4.46086957 L3.20869565,24.2608696 L50.3608696,15.926087 C50.4,15.926087 50.4391304,15.926087 50.4782609,15.9652174 C50.7521739,16.0043478 50.9478261,16.2 50.9478261,16.473913 L50.9478261,16.473913 L50.9478261,18.1565217 C50.9478261,18.5086957 50.673913,18.7826087 50.3608696,18.8608696 L50.3608696,18.8608696 L0.586956522,27.626087 L0.586956522,27.626087 L0.469565217,27.626087 C0.195652174,27.5869565 -9.9475983e-14,27.3913043 -9.9475983e-14,27.1173913 L-9.9475983e-14,27.1173913 L-9.9475983e-14,5.04782609 C-9.9475983e-14,4.69565217 0.273913043,4.42173913 0.586956522,4.34347826 L0.586956522,4.34347826 L2.62173913,3.99130435 L2.62173913,3.99130435 Z M12.7565217,7.0826087 C16.7086957,6.37826087 17.0608696,8.72608696 17.0608696,11.7782609 L17.0608696,18.273913 C17.0217391,18.626087 16.7869565,18.9 16.473913,18.9782609 L16.473913,18.9782609 L15.6130435,19.1347826 L15.573913,19.1347826 C15.3391304,19.173913 15.1434783,19.0173913 15.1043478,18.7826087 L15.1043478,18.7826087 L14.7913043,18 C13.8521739,19.173913 12.5217391,19.9565217 11.0347826,20.2304348 C8.72608696,20.6217391 7.0826087,19.3695652 7.0826087,16.826087 C7.0826087,14.5956522 8.84347826,12.5608696 11.973913,12.0130435 C12.7956522,11.8565217 13.5782609,11.8565217 14.4,11.973913 C14.4,10.0565217 14.0478261,9.35217391 12.4826087,9.62608696 C11.2695652,9.86086957 10.1347826,10.2521739 9.03913043,10.8 C9,10.8 8.96086957,10.8391304 8.8826087,10.8391304 C8.60869565,10.8391304 8.41304348,10.6434783 8.37391304,10.4086957 L8.37391304,10.4086957 L8.13913043,9.31304348 C8.06086957,9 8.2173913,8.64782609 8.53043478,8.53043478 C9.86086957,7.82608696 11.2695652,7.35652174 12.7565217,7.0826087 Z M31.5391304,0 C31.773913,0.0391304348 31.9695652,0.234782609 31.9695652,0.508695652 L31.9695652,0.508695652 L31.9695652,3.95217391 L35.1,3.40434783 C35.2173913,3.36521739 35.3347826,3.40434783 35.4521739,3.44347826 L35.4521739,3.44347826 L35.5304348,3.52173913 L35.5917913,3.5733913 C35.661913,3.64852174 35.6869565,3.74869565 35.6869565,3.87391304 L35.6869565,3.87391304 L35.6869565,5.24347826 C35.6869565,5.59565217 35.4130435,5.86956522 35.1,5.94782609 L35.1,5.94782609 L31.9695652,6.49565217 L31.9695652,12.5217391 C31.9695652,13.5782609 32.3608696,13.6956522 32.9478261,13.5782609 C33.6130435,13.4217391 34.2782609,13.1086957 34.826087,12.7173913 C35.2173913,12.4826087 35.4130435,12.6391304 35.5304348,12.873913 L35.5304348,12.873913 L36.0782609,14.126087 L36.1160217,14.2209 C36.2023043,14.5072174 36.0508696,14.8030435 35.8043478,14.9086957 C34.7478261,15.6521739 33.5347826,16.1608696 32.2434783,16.473913 C29.8173913,16.9043478 29.1130435,15.5347826 29.1130435,13.3826087 L29.1130435,13.3826087 L29.1130435,7.04347826 L23.4,8.06086957 L23.4,14.0478261 C23.4,15.1043478 23.7913043,15.2217391 24.3782609,15.1043478 C25.0434783,14.9478261 25.7086957,14.6347826 26.2565217,14.2434783 C26.6478261,14.0086957 26.8434783,14.1652174 26.9608696,14.4 L26.9608696,14.4 L27.5086957,15.6521739 L27.5464565,15.746987 C27.6327391,16.0333043 27.4813043,16.3291304 27.2347826,16.4347826 C26.1782609,17.1782609 24.9652174,17.6869565 23.673913,18 C21.2478261,18.4304348 20.5434783,17.0608696 20.5434783,14.9086957 L20.5434783,14.9086957 L20.5434783,8.53043478 L19.2521739,8.76521739 L19.2521739,8.76521739 L19.0565217,8.76521739 C18.7826087,8.76521739 18.5869565,8.56956522 18.5869565,8.29565217 L18.5869565,8.29565217 L18.5869565,6.92608696 C18.5869565,6.57391304 18.8217391,6.26086957 19.173913,6.22173913 L19.173913,6.22173913 L20.4652174,5.98695652 L20.4652174,2.5826087 C20.5043478,2.23043478 20.7391304,1.95652174 21.0521739,1.87826087 L21.0521739,1.87826087 L22.8130435,1.52608696 L22.8130435,1.52608696 L22.9304348,1.52608696 C23.1652174,1.56521739 23.3608696,1.76086957 23.3608696,2.03478261 L23.3608696,2.03478261 L23.3608696,5.47826087 L29.073913,4.46086957 L29.073913,1.05652174 C29.1130435,0.704347826 29.3478261,0.430434783 29.6608696,0.352173913 L29.6608696,0.352173913 L31.4217391,0 L31.4217391,0 Z M14.3608696,13.9304348 C13.6565217,13.6956522 12.9130435,13.6565217 12.2086957,13.8130435 C10.7608696,14.0869565 9.74347826,15.026087 9.74347826,16.2782609 C9.74347826,17.373913 10.4869565,18.1173913 11.6217391,17.9217391 C12.7565217,17.6478261 13.7347826,16.9434783 14.3608696,15.926087 L14.3608696,15.926087 Z M42.6913043,1.72173913 C45.6652174,1.21304348 47.973913,3.16956522 47.973913,6.45652174 C47.973913,6.65217391 47.973913,7.04347826 47.9347826,7.27826087 C47.9347826,7.59130435 47.7,7.82608696 47.426087,7.90434783 L47.426087,7.90434783 L39.6391304,9.27391304 C39.6391304,9.43043478 39.6391304,9.58695652 39.6782609,9.74347826 C39.9521739,11.2695652 41.4,12.2478261 42.926087,11.973913 C43.8652174,11.7782609 44.7652174,11.3086957 45.4695652,10.6434783 C45.8217391,10.3695652 46.0173913,10.2130435 46.2521739,10.4869565 L46.2521739,10.4869565 L47.0347826,11.5043478 C47.2695652,11.7391304 47.3478261,11.973913 46.9956522,12.326087 C45.8608696,13.5 44.373913,14.3217391 42.7695652,14.5956522 C39.2869565,15.2217391 36.9782609,12.7173913 36.9782609,9.15652174 C36.9782609,5.71304348 39.2478261,2.30869565 42.6913043,1.72173913 Z M45.3130435,6.37826087 C45.2347826,4.93043478 44.1,3.87391304 42.6913043,4.10869565 C41.126087,4.46086957 39.9521739,5.75217391 39.7565217,7.35652174 L39.7565217,7.35652174 Z" id="Combined-Shape" fill="#1694AF"/>
            </g>
        </g>
    </g>
</svg>